<svg width="225" height="225" viewBox="0 0 225 225" xmlns="http://www.w3.org/2000/svg" role="img" aria-label="WhatsApp">
  <defs>
    <linearGradient id="waGreen" x1="40" y1="40" x2="185" y2="185" gradientUnits="userSpaceOnUse">
      <stop stop-color="#25D366"/>
      <stop offset="1" stop-color="#1EBE5D"/>
    </linearGradient>
  </defs>
  <g transform="translate(12 12)">
    <!-- bubble outline -->
    <path
      d="M101.5 0C45.6 0 0 42.7 0 95.3c0 18.7 5.9 36.1 16 50.7L6.5 189c-.7 2.6 1.8 4.9 4.4 4l34.3-12.1c16.6 11 36.5 17.4 56.3 17.4 55.9 0 101.5-42.7 101.5-95.3S157.4 0 101.5 0Z"
      fill="#FFFFFF"
    />
    <!-- main green circle -->
    <circle cx="101.5" cy="95.3" r="83" fill="url(#waGreen)"/>
    <!-- phone glyph -->
    <path
      fill="#FFFFFF"
      d="M148.7 118.8c-2.3-1.1-13.7-6.7-15.9-7.5-2.2-.8-3.8-1.1-5.2 1.1-1.6 2.3-6.1 7.5-7.4 9-1.3 1.5-2.7 1.7-5.1.6-2.4-1.1-10.2-3.8-19.3-11.9-7.1-6.3-11.9-14-13.3-16.4-1.4-2.4-.1-3.7 1.1-5 1.1-1.1 2.4-3.1 3.6-4.6 1.2-1.5 1.6-2.6 2.4-4.3.8-1.7.4-3.2-.2-4.4-.6-1.2-5.3-12.8-7.3-17.6-1.9-4.8-3.9-4.1-5.3-4.2-1.4-.1-3-.1-4.6-.1-1.6 0-4.2.6-6.4 2.9-2.2 2.3-8.3 8.1-8.3 19.7s8.5 22.8 9.7 24.3c1.2 1.5 16.7 25.5 40.5 35.8 5.7 2.5 10.1 4 13.5 5.1 5.7 1.8 10.9 1.5 15 .9 4.6-.7 14.3-5.9 16.3-11.6 2-5.7 2-10.6 1.4-11.6-.6-1-2.2-1.6-4.6-2.8Z"
    />
  </g>
</svg>
